<?xml version="1.0" encoding="UTF-8" standalone="no"?>
<svg xmlns="http://www.w3.org/2000/svg" width="256" height="209" viewBox="0 0 256 209">
  <path fill="#1877f2" d="M191.87 16.543v-15.28C191.87.332 189.533 0 187.26 0H68.738C66.466 0 64.13.332 64.13 1.263v15.28h-24.83c-3.35 0-6.07 2.728-6.07 6.096v32.405H18.125a6.133 6.133 0 0 0-6.125 6.13v25.718c0 3.368 2.75 6.098 6.125 6.098H34.23v78.594c0 3.368 2.723 6.097 6.073 6.097H58.2V207.74c0 3.37 2.733 6.1 6.073 6.1h27.847c3.35 0 6.073-2.73 6.073-6.1v-61.226h37.24c-3.34 0-6.07-2.73-6.07-6.1v-78.594h37.23c3.34 0 6.07-2.73 6.07-6.098v-25.718a6.133 6.133 0 0 0-6.07-6.13h-24.83V16.544h45.857a6.13 6.13 0 0 0 6.073-6.097zm24.84 97.636a7.707 7.707 0 0 0-7.745 7.753v77.678c0 4.263-3.473 7.748-7.746 7.748H85.622c-4.274 0-7.747-3.485-7.747-7.748v-77.678a7.707 7.707 0 0 0-7.744-7.753h-28.16a3.46 3.46 0 0 1-3.46-3.463V41.86a3.46 3.46 0 0 1 3.46-3.463h28.16c7.917 0 14.336 6.455 14.336 14.372v31.074h35.41c3.34 0 6.07 2.73 6.07 6.098v25.72a6.135 6.135 0 0 1-6.07 6.13h-35.41v97.343a7.707 7.707 0 0 0 7.744 7.753H189.87a7.707 7.707 0 0 0 7.745-7.753v-97.343h29.38c3.34 0 6.07-2.73 6.07-6.097v-25.72a6.134 6.134 0 0 1-6.07-6.13h-29.38V24.86a3.46 3.46 0 0 1 3.463-3.462h35.19c7.917 0 14.34 6.455 14.34 14.372v86.467a3.46 3.46 0 0 1-3.46 3.464h-35.19v51.02a3.46 3.46 0 0 1-3.464 3.462z"/>
</svg>
